<mxfile host="app.diagrams.net" modified="2023-06-23T02:02:26.926Z" agent="Mozilla/5.0 (Windows NT 10.0; Win64; x64) AppleWebKit/537.36 (KHTML, like Gecko) Chrome/114.0.0.0 Safari/537.36 Edg/114.0.1823.51" etag="foym1UB9tCadObkm_tdQ" version="21.5.0" type="github">
  <diagram name="Page-1" id="w5_Z6XuyeLUM8bMZq4uo">
    <mxGraphModel dx="1508" dy="854" grid="1" gridSize="10" guides="1" tooltips="1" connect="1" arrows="1" fold="1" page="1" pageScale="1" pageWidth="850" pageHeight="1100" math="0" shadow="0">
      <root>
        <mxCell id="0" />
        <mxCell id="1" parent="0" />
        <mxCell id="V4gtt5B7lPNU4ijEH9SD-2" value="" style="swimlane;startSize=0;" parent="1" vertex="1">
          <mxGeometry y="520" width="850" height="80" as="geometry" />
        </mxCell>
        <mxCell id="V4gtt5B7lPNU4ijEH9SD-4" value="Course" style="text;html=1;strokeColor=none;fillColor=none;align=center;verticalAlign=middle;whiteSpace=wrap;rounded=0;" parent="V4gtt5B7lPNU4ijEH9SD-2" vertex="1">
          <mxGeometry x="380" y="25" width="60" height="30" as="geometry" />
        </mxCell>
        <mxCell id="V4gtt5B7lPNU4ijEH9SD-5" value="Lesson" style="text;html=1;strokeColor=none;fillColor=none;align=center;verticalAlign=middle;whiteSpace=wrap;rounded=0;" parent="V4gtt5B7lPNU4ijEH9SD-2" vertex="1">
          <mxGeometry x="730" y="25" width="60" height="30" as="geometry" />
        </mxCell>
        <mxCell id="EdKh1DuthHlncnOAXlof-1" value="Banner" style="text;html=1;strokeColor=none;fillColor=none;align=center;verticalAlign=middle;whiteSpace=wrap;rounded=0;" vertex="1" parent="V4gtt5B7lPNU4ijEH9SD-2">
          <mxGeometry x="30" y="20" width="60" height="30" as="geometry" />
        </mxCell>
      </root>
    </mxGraphModel>
  </diagram>
</mxfile>
